<svg width="18" height="21" viewBox="0 0 18 21" fill="none" xmlns="http://www.w3.org/2000/svg">
<path fill-rule="evenodd" clip-rule="evenodd" d="M6 0.76923C6.55228 0.76923 7 1.21695 7 1.76923V2.58863C7.61425 2.55385 8.27962 2.53846 9 2.53846C9.72038 2.53846 10.3858 2.55385 11 2.58863V1.76923C11 1.21695 11.4477 0.76923 12 0.76923C12.5523 0.76923 13 1.21695 13 1.76923V2.80492C16.2444 3.37367 17.5091 4.97267 17.876 8.71154C17.8997 8.95255 17.9196 9.20245 17.9361 9.46154C17.9514 9.70316 17.9638 9.95278 17.9734 10.2106C17.9917 10.7 18 11.2189 18 11.7692C18 19.3708 16.4115 21 9 21C1.5885 21 0 19.3708 0 11.7692C0 11.2189 0.00832469 10.7 0.0265802 10.2106C0.0361996 9.95278 0.0485762 9.70316 0.0639453 9.46154C0.0804255 9.20245 0.100346 8.95255 0.123998 8.71154C0.490911 4.97267 1.75562 3.37367 5 2.80492V1.76923C5 1.21695 5.44772 0.76923 6 0.76923ZM5 4.33111C4.13435 4.50579 3.53204 4.75803 3.09574 5.0861C2.37641 5.62698 1.85942 6.58378 1.63192 8.71154H16.3681C16.1406 6.58378 15.6236 5.62698 14.9043 5.0861C14.468 4.75803 13.8657 4.50579 13 4.33111V4.84615C13 5.39844 12.5523 5.84615 12 5.84615C11.4477 5.84615 11 5.39844 11 4.84615V4.09215C10.4103 4.05642 9.74714 4.03846 9 4.03846C8.25286 4.03846 7.58968 4.05642 7 4.09215V4.84615C7 5.39844 6.55228 5.84615 6 5.84615C5.44772 5.84615 5 5.39844 5 4.84615V4.33111ZM16.5 11.7692C16.5 11.212 16.4912 10.6938 16.4724 10.2115H1.52764C1.50878 10.6938 1.5 11.212 1.5 11.7692C1.5 13.6363 1.59942 15.0367 1.82999 16.1008C2.05731 17.1499 2.39165 17.7747 2.79469 18.188C3.62708 19.0418 5.24238 19.5 9 19.5C12.7576 19.5 14.3729 19.0418 15.2053 18.188C15.6083 17.7747 15.9427 17.1499 16.17 16.1008C16.4006 15.0367 16.5 13.6363 16.5 11.7692Z" fill="#969696"/>
<path fill-rule="evenodd" clip-rule="evenodd" d="M3.5 13.3077C3.5 12.7554 3.94772 12.3077 4.5 12.3077H6.75C7.30228 12.3077 7.75 12.7554 7.75 13.3077C7.75 13.86 7.30228 14.3077 6.75 14.3077H4.5C3.94772 14.3077 3.5 13.86 3.5 13.3077ZM11.25 12.3077C10.6977 12.3077 10.25 12.7554 10.25 13.3077C10.25 13.86 10.6977 14.3077 11.25 14.3077H13.5C14.0523 14.3077 14.5 13.86 14.5 13.3077C14.5 12.7554 14.0523 12.3077 13.5 12.3077H11.25ZM11.25 15.3846C10.6977 15.3846 10.25 15.8323 10.25 16.3846C10.25 16.9369 10.6977 17.3846 11.25 17.3846H13.5C14.0523 17.3846 14.5 16.9369 14.5 16.3846C14.5 15.8323 14.0523 15.3846 13.5 15.3846H11.25ZM4.5 15.3846C3.94772 15.3846 3.5 15.8323 3.5 16.3846C3.5 16.9369 3.94772 17.3846 4.5 17.3846H6.75C7.30228 17.3846 7.75 16.9369 7.75 16.3846C7.75 15.8323 7.30228 15.3846 6.75 15.3846H4.5Z" fill="#969696"/>
</svg>
