<svg width="15" height="15" viewBox="0 0 15 15" fill="none" xmlns="http://www.w3.org/2000/svg">
<path d="M2.50302 0.75H12.497C13.2724 0.75 13.8258 1.12929 14.0817 1.5739C14.3288 2.00326 14.3253 2.52238 13.9281 2.98247L9.76393 7.80552C9.43736 8.18377 9.24849 8.65995 9.24849 9.16381V12.3446C9.24849 12.5088 9.1651 12.6997 8.95937 12.8486L7.29371 14.0543C6.98591 14.2772 6.58104 14.3033 6.24332 14.1659C5.90509 14.0283 5.75151 13.7864 5.75151 13.5503V9.16381C5.75151 8.65995 5.56264 8.18377 5.23607 7.80552L1.07192 2.98247C0.674692 2.52238 0.671183 2.00326 0.918323 1.57389C1.17423 1.12929 1.72757 0.75 2.50302 0.75Z" stroke="#969696" stroke-width="1.5" stroke-linecap="round" stroke-linejoin="round"/>
<path d="M5.25 3.125H9.75" stroke="#969696" stroke-width="1.5" stroke-linecap="round" stroke-linejoin="round"/>
</svg>
