<?xml version="1.0" encoding="UTF-8"?>
<svg width="543px" height="320px" viewBox="0 0 543 320" version="1.1" xmlns="http://www.w3.org/2000/svg" xmlns:xlink="http://www.w3.org/1999/xlink">
    <title>logo-orange-money-design-sprint</title>
    <g id="logo-orange-money-design-sprint" stroke="none" stroke-width="1" fill="none" fill-rule="evenodd">
        <g id="logo-orange-money" transform="translate(59.000000, 127.000000)" fill-rule="nonzero">
            <path d="M51.2874053,6.36607857 L13.8603992,6.36607857 C9.72635802,6.45232845 6.42008447,9.82820856 6.42008447,13.9630333 C6.42008447,18.097858 9.72635802,21.4737383 13.8603992,21.5599881 L32.9417738,21.5599881 L2.22573725,52.2801222 C-0.741912416,55.2476885 -0.741912416,60.0590643 2.22573725,63.0266306 C5.19338692,65.994197 10.0048977,65.994197 12.9725473,63.0266306 L43.688584,32.3081497 L43.688584,51.390642 C43.688584,55.5872374 47.0906922,58.9892502 51.2874053,58.9892502 C55.4841185,58.9892502 58.8862268,55.5872374 58.8862268,51.390642 L58.8862268,13.9646866 C58.8862268,9.76809129 55.4841185,6.36607857 51.2874053,6.36607857" id="Path" fill="#000000"></path>
            <path d="M72.8511268,58.8845665 L110.27648,58.8845665 C113.028469,58.9419822 115.596343,57.5066995 116.98918,55.132583 C118.382017,52.7584664 118.382017,49.8167589 116.98918,47.4426423 C115.596343,45.0685258 113.028469,43.6332431 110.27648,43.6906587 L91.1967584,43.6906587 L121.912795,12.9721816 C124.880445,10.0046156 124.880445,5.19324048 121.912795,2.22567449 C118.945145,-0.741891497 114.133634,-0.741891497 111.165985,2.22567449 L80.4499482,32.9441517 L80.4499482,13.8600084 C80.4499482,9.66341354 77.04784,6.26140124 72.8511268,6.26140124 C68.6544137,6.26140124 65.2523054,9.66341354 65.2523054,13.8600084 L65.2523054,51.284306 C65.2523054,55.4809009 68.6544137,58.8829133 72.8511268,58.8829133" id="Path" fill="#FF7900"></path>
            <path d="M153.600496,42.3536126 C159.680373,42.3536126 161.966261,37.2041182 161.966261,32.0969933 C161.966261,26.7323935 159.680373,21.5812698 153.598858,21.5812698 C147.518982,21.5812698 145.231455,26.7323935 145.231455,32.0969933 C145.231455,37.2041182 147.518982,42.3536126 153.598858,42.3536126 M153.598858,15.9151964 C163.128855,15.9151964 168.737144,22.9973807 168.737144,32.0969933 C168.737144,40.9375016 163.130493,48.0196857 153.600496,48.0196857 C144.068861,48.0196857 138.462209,40.9375016 138.462209,32.0969933 C138.462209,22.9973807 144.068861,15.9151964 153.600496,15.9151964 M171.612519,25.1011771 L177.435315,25.1011771 L177.435315,29.2207725 L177.520463,29.2207725 C178.64212,26.4309199 181.663227,24.4998596 184.636849,24.4998596 C185.091027,24.5052181 185.541884,24.5777115 185.97465,24.7149651 L185.97465,30.3794089 C185.250003,30.2355941 184.512825,30.1635407 183.77391,30.1643034 C179.288915,30.1643034 177.736607,33.3843668 177.736607,37.2888568 L177.736607,47.2896309 L171.612519,47.2896309 L171.612519,25.1011771 L171.612519,25.1011771 Z M201.193173,36.4316942 C200.1583,37.3328556 198.000133,37.3768544 196.103958,37.7190677 C194.204508,38.1036502 192.481903,38.7489665 192.481903,40.9798709 C192.481903,43.254774 194.250357,43.8120926 196.231679,43.8120926 C201.02124,43.8120926 201.193173,40.0363401 201.193173,38.7065973 L201.193173,36.4316942 Z M187.045547,31.924257 C187.392688,26.2158146 192.524478,24.4998596 197.52527,24.4998596 C201.969327,24.4998596 207.317261,25.4857597 207.317261,30.8096197 L207.317261,42.3536126 C207.317261,44.371041 207.533406,46.3868399 208.093415,47.2912606 L201.882542,47.2912606 C201.653409,46.59499 201.50883,45.8739308 201.451891,45.1434652 C199.511505,47.1608936 196.665605,47.8893188 193.947427,47.8893188 C189.721151,47.8893188 186.357815,45.787152 186.357815,41.2373455 C186.357815,36.2182183 190.15344,35.0155833 193.947427,34.4990041 C197.700478,33.9416855 201.193173,34.0704229 201.193173,31.5820439 C201.193173,28.9632979 199.382146,28.5770858 197.225615,28.5770858 C194.897152,28.5770858 193.387417,29.5222461 193.171273,31.924257 L187.047185,31.924257 L187.045547,31.924257 Z M210.903291,25.1011771 L216.726087,25.1011771 L216.726087,28.1908738 L216.857083,28.1908738 C218.407755,25.700865 221.081721,24.4998596 223.668903,24.4998596 C230.181067,24.4998596 231.818525,28.1468749 231.818525,33.6418416 L231.818525,47.2896309 L225.696074,47.2896309 L225.696074,34.7581085 C225.696074,31.1094636 224.616991,29.3071406 221.771091,29.3071406 C218.450328,29.3071406 217.027379,31.1518329 217.027379,35.65927 L217.027379,47.2896309 L210.903291,47.2896309 L210.903291,25.1011771 L210.903291,25.1011771 Z M250.647638,35.9167446 C250.647638,32.3120988 249.396622,29.0936649 245.429064,29.0936649 C241.978942,29.0936649 240.469207,32.0969933 240.469207,35.4001657 C240.469207,38.5778599 241.67765,42.0553981 245.430702,42.0553981 C248.921759,42.0553981 250.647638,39.0928094 250.647638,35.9167446 Z M256.470433,45.8735199 C256.470433,49.5221648 255.176843,55.7031875 244.911627,55.7031875 C240.513418,55.7031875 235.38163,53.6417602 235.0787,48.5786341 L241.160215,48.5786341 C241.720225,50.8519076 243.575462,51.6259614 245.731994,51.6259614 C249.137903,51.6259614 250.690212,49.3070593 250.647638,46.1326242 L250.647638,43.2140344 L250.560854,43.2140344 C249.224689,45.5280476 246.550722,46.6459441 243.876754,46.6459441 C237.192657,46.6459441 234.346757,41.582818 234.346757,35.4865338 C234.346757,29.7340924 237.665882,24.4998596 243.919329,24.4998596 C246.852013,24.4998596 249.09533,25.4873893 250.560854,28.0621364 L250.647638,28.0621364 L250.647638,25.1011771 L256.470433,25.1011771 L256.470433,45.8735199 L256.470433,45.8735199 Z M275.10469,33.8129481 C274.544681,30.7232516 273.20524,29.0936649 270.231619,29.0936649 C266.349209,29.0936649 265.22919,32.0969933 265.142404,33.8129481 L275.10469,33.8129481 Z M265.142404,37.6750689 C265.314338,41.5371896 267.21215,43.2971432 270.619697,43.2971432 C273.075882,43.2971432 275.062117,41.7962939 275.448556,40.4241818 L280.840701,40.4241818 C279.114822,45.6600441 275.448556,47.8909485 270.403553,47.8909485 C263.373951,47.8909485 259.018316,43.0836675 259.018316,36.2182183 C259.018316,29.566245 263.63267,24.4998596 270.403553,24.4998596 C277.994801,24.4998596 281.659429,30.851989 281.227141,37.6766985 L265.142404,37.6766985 L265.142404,37.6750689 Z M295.576174,16.6468809 L305.106171,16.6468809 L312.309343,37.7206973 L312.394491,37.7206973 L319.209585,16.6468809 L328.739582,16.6468809 L328.739582,47.2912606 L322.400987,47.2912606 L322.400987,25.5737574 L322.314203,25.5737574 L314.765527,47.2912606 L309.548591,47.2912606 L301.999916,25.7872332 L301.916406,25.7872332 L301.916406,47.2912606 L295.576174,47.2912606 L295.576174,16.6468809 Z M342.952707,43.2987728 C347.138045,43.2987728 348.389063,39.7348665 348.389063,36.2165887 C348.389063,32.6543119 347.138045,29.0920352 342.952707,29.0920352 C338.813215,29.0920352 337.5622,32.6543119 337.5622,36.2165887 C337.5622,39.7364962 338.813215,43.2987728 342.952707,43.2987728 M342.952707,24.4998596 C349.982308,24.4998596 354.513151,29.1360341 354.513151,36.2165887 C354.513151,43.2564037 349.982308,47.8893188 342.952707,47.8893188 C335.967316,47.8893188 331.441385,43.2564037 331.441385,36.2165887 C331.441385,29.1360341 335.967316,24.4998596 342.952707,24.4998596 M357.141268,25.1011771 L362.964064,25.1011771 L362.964064,28.1908738 L363.095061,28.1908738 C364.645732,25.700865 367.319699,24.4998596 369.906879,24.4998596 C376.417407,24.4998596 378.056502,28.1468749 378.056502,33.6418416 L378.056502,47.2896309 L371.932414,47.2896309 L371.932414,34.7581085 C371.932414,31.1094636 370.854967,29.3071406 368.009067,29.3071406 C364.688306,29.3071406 363.265356,31.1518329 363.265356,35.65927 L363.265356,47.2896309 L357.141268,47.2896309 L357.141268,25.1011771 L357.141268,25.1011771 Z M396.497538,33.8129481 C395.93589,30.7232516 394.599727,29.0936649 391.622831,29.0936649 C387.742058,29.0936649 386.622037,32.0969933 386.535252,33.8129481 L396.497538,33.8129481 Z M386.535252,37.6750689 C386.708823,41.5371896 388.604997,43.2971432 392.012544,43.2971432 C394.470366,43.2971432 396.454964,41.7962939 396.843042,40.4241818 L402.235187,40.4241818 C400.509307,45.6600441 396.843042,47.8909485 391.7964,47.8909485 C384.768436,47.8909485 380.412801,43.0836675 380.412801,36.2182183 C380.412801,29.566245 385.025517,24.4998596 391.7964,24.4998596 C399.389287,24.4998596 403.053914,30.851989 402.619988,37.6766985 L386.535252,37.6766985 L386.535252,37.6750689 Z" id="Shape" fill="#000000"></path>
            <path d="M415.871878,50.6422951 C414.571805,54.2330483 412.514949,55.7031875 408.402832,55.7031875 C407.187199,55.7031875 405.968381,55.616129 404.754343,55.4863625 L404.754343,50.4271127 C405.885533,50.5125286 407.059742,50.6850031 408.235542,50.6422951 C410.290805,50.4254701 410.963146,48.2194401 410.290805,46.4454174 L402.65447,25.4643143 L409.03375,25.4643143 L413.940887,40.7784006 L414.026922,40.7784006 L418.766771,25.4643143 L424.935745,25.4643143 L415.871878,50.6422951 L415.871878,50.6422951 Z" id="Path" fill="#000000"></path>
        </g>
    </g>
</svg>