<svg width="24" height="24" viewBox="0 0 24 24" fill="none" xmlns="http://www.w3.org/2000/svg">
<path d="M12 0.75C14.457 0.75 16.3853 0.861309 17.9023 1.15317C19.4155 1.44429 20.4637 1.90494 21.2098 2.56264C22.6951 3.8719 23.25 6.2019 23.25 10.6667C23.25 13.55 22.9935 15.7236 22.268 17.1623C21.9157 17.8609 21.4614 18.3674 20.8803 18.7063C20.2948 19.0476 19.5268 19.25 18.5002 19.25C17.2581 19.25 16.3481 19.5283 15.6458 20.0041C14.957 20.4708 14.5371 21.0841 14.2107 21.5978C14.1621 21.6741 14.1162 21.7472 14.0722 21.8172C13.7982 22.2527 13.5991 22.5692 13.3232 22.8168C13.0529 23.0593 12.6832 23.25 12.0003 23.25C11.3174 23.25 10.9477 23.0593 10.6774 22.8167C10.4015 22.5692 10.2024 22.2527 9.92845 21.8172C9.8844 21.7472 9.83842 21.6741 9.78987 21.5977C9.46344 21.084 9.0435 20.4708 8.35467 20.0041C7.65236 19.5282 6.74236 19.25 5.50024 19.25C4.47762 19.25 3.71138 19.0421 3.12601 18.6937C2.54368 18.3471 2.08737 17.8299 1.73346 17.122C1.00607 15.667 0.75 13.4907 0.75 10.6667C0.75 6.25763 1.30368 3.92331 2.79252 2.59989C3.54022 1.93527 4.5896 1.46585 6.10138 1.1672C7.61722 0.867746 9.54453 0.75 12 0.75Z" stroke="#969696" stroke-width="1.5" stroke-linecap="round" stroke-linejoin="round"/>
<path d="M7 9H11" stroke="#969696" stroke-width="1.5" stroke-linecap="round" stroke-linejoin="round"/>
<path d="M7 13H17" stroke="#969696" stroke-width="1.5" stroke-linecap="round" stroke-linejoin="round"/>
</svg>
