<svg width="20" height="23" viewBox="0 0 20 23" fill="none" xmlns="http://www.w3.org/2000/svg">
<path d="M7 21C8.5 22.3333 11.5 22.3333 13 21" stroke="#969696" stroke-width="1.5" stroke-linecap="round" stroke-linejoin="round"/>
<path fill-rule="evenodd" clip-rule="evenodd" d="M10.9987 1.05208C10.9996 1.03483 11 1.01747 11 1C11 0.447715 10.5523 0 10 0C9.44772 0 9.00001 0.447715 9.00001 1C9.00001 1.01748 9.00046 1.03486 9.00134 1.05212C5.65369 1.53463 2.5037 5.29948 3.00006 9.5C3.25714 10.7854 2.44769 11.4664 1.60518 12.1752C0.809063 12.845 -0.0165725 13.5396 0.000262538 14.7925C0.000262538 16.5484 1.00002 17.5 2.46831 17.9719C2.46831 17.9719 5.1574 19 10.0001 19C14.8429 19 17.532 17.9719 17.532 17.9719C19.0002 17.5 20.0002 16.5 20 14.7925C19.9998 13.5288 19.1747 12.8339 18.383 12.1672C17.5442 11.4609 16.743 10.7861 17.0002 9.5C17.4966 5.29938 14.3464 1.53444 10.9987 1.05208ZM10 2H9.71913C8.28529 2 6.73493 2.80994 5.5806 4.20107C4.44351 5.57143 3.77143 7.4151 3.98909 9.34748C4.15243 10.2178 3.9669 10.9458 3.58256 11.5535C3.22675 12.1161 2.71109 12.5511 2.31905 12.8814C1.43014 13.6305 0.990172 14.0348 1.00017 14.779L1.00035 14.7925H1.00026C1.00026 15.4671 1.18658 15.9074 1.44959 16.2208C1.72549 16.5494 2.15658 16.8213 2.7743 17.0199L2.8001 17.0282L2.82298 17.0369L2.82371 17.0372L2.82444 17.0375L2.8249 17.0377L2.82542 17.0379L2.83896 17.0428C2.8538 17.0481 2.8789 17.057 2.91415 17.069C2.98464 17.0928 3.09569 17.1289 3.24626 17.1732C3.5474 17.2617 4.00654 17.3831 4.61542 17.5056C5.83301 17.7505 7.64982 18 10.0001 18C12.3505 18 14.1673 17.7505 15.3849 17.5056C15.9937 17.3831 16.4529 17.2617 16.754 17.1732C16.9046 17.1289 17.0156 17.0928 17.0861 17.069C17.1214 17.057 17.1465 17.0481 17.1613 17.0428L17.1749 17.0379L17.1754 17.0377L17.1758 17.0375L17.1766 17.0372L17.1773 17.0369L17.2002 17.0282L17.226 17.0199C17.8324 16.825 18.2666 16.545 18.5471 16.207C18.8168 15.882 19.0001 15.4375 19 14.7926C18.9999 14.0254 18.5474 13.6142 17.6677 12.8722C17.2777 12.5432 16.7646 12.1099 16.4113 11.5479C16.0295 10.9405 15.8483 10.2146 16.0112 9.34745C16.2288 7.41508 15.5568 5.57143 14.4197 4.20107C13.2653 2.80994 11.715 2 10.2811 2H10Z" fill="#969696"/>
</svg>
