<svg width="24" height="24" viewBox="0 0 24 24" fill="none" xmlns="http://www.w3.org/2000/svg">
<path fill-rule="evenodd" clip-rule="evenodd" d="M11.8445 21.6619C8.15273 21.6619 5 21.0874 5 18.7866C5 16.4859 8.13273 14.3619 11.8445 14.3619C15.5364 14.3619 18.6891 16.4653 18.6891 18.766C18.6891 21.0659 15.5564 21.6619 11.8445 21.6619Z" stroke="#464646" stroke-width="1.5" stroke-linecap="round" stroke-linejoin="round"/>
<path fill-rule="evenodd" clip-rule="evenodd" d="M11.8375 11.1736C14.2602 11.1736 16.2239 9.21 16.2239 6.78727C16.2239 4.36455 14.2602 2.4 11.8375 2.4C9.41477 2.4 7.45022 4.36455 7.45022 6.78727C7.44204 9.20182 9.39204 11.1655 11.8066 11.1736C11.8175 11.1736 11.8275 11.1736 11.8375 11.1736Z" stroke="#464646" stroke-width="1.5" stroke-linecap="round" stroke-linejoin="round"/>
</svg>
