<svg width="14" height="16" viewBox="0 0 14 16" fill="none" xmlns="http://www.w3.org/2000/svg">
<path fill-rule="evenodd" clip-rule="evenodd" d="M6.79344 15.2464C3.75864 15.2464 1.16699 14.8156 1.16699 13.09C1.16699 11.3644 3.7422 9.77144 6.79344 9.77144C9.82824 9.77144 12.4199 11.349 12.4199 13.0745C12.4199 14.7994 9.84468 15.2464 6.79344 15.2464Z" stroke="#969696" stroke-width="1.5" stroke-linecap="round" stroke-linejoin="round"/>
<path fill-rule="evenodd" clip-rule="evenodd" d="M6.78717 7.38023C8.77874 7.38023 10.3929 5.9075 10.3929 4.09046C10.3929 2.27341 8.77874 0.800003 6.78717 0.800003C4.79561 0.800003 3.18069 2.27341 3.18069 4.09046C3.17396 5.90137 4.77693 7.37409 6.76176 7.38023C6.77073 7.38023 6.77895 7.38023 6.78717 7.38023Z" stroke="#969696" stroke-width="1.5" stroke-linecap="round" stroke-linejoin="round"/>
</svg>
