<svg width="24" height="24" viewBox="0 0 24 24" fill="none" xmlns="http://www.w3.org/2000/svg">
<path d="M15.1692 3.88459C14.5145 0.371803 9.48552 0.371804 8.83076 3.88459C8.63655 4.92652 7.55977 5.54782 6.56279 5.19578C3.1917 4.00542 0.684051 8.36715 3.39311 10.6885C4.19714 11.3775 4.19714 12.6225 3.39311 13.3115C0.684051 15.6329 3.1917 19.9946 6.56279 18.8042C7.55977 18.4522 8.63655 19.0735 8.83076 20.1154C9.48552 23.6282 14.5145 23.6282 15.1692 20.1154C15.3635 19.0735 16.4402 18.4522 17.4372 18.8042C20.8083 19.9946 23.3159 15.6328 20.6069 13.3115C19.8029 12.6225 19.8029 11.3775 20.6069 10.6885C23.3159 8.36715 20.8083 4.00542 17.4372 5.19578C16.4402 5.54782 15.3635 4.92652 15.1692 3.88459Z" stroke="#464646" stroke-width="1.5" stroke-linejoin="round"/>
<circle cx="4" cy="4" r="3.25" transform="matrix(-1 0 0 1 16 8)" stroke="#464646" stroke-width="1.5"/>
</svg>
