<svg width="8" height="8" viewBox="0 0 8 8" fill="none" xmlns="http://www.w3.org/2000/svg">
<path d="M1.78363 0.306016C1.37561 -0.102005 0.714067 -0.102005 0.306043 0.306016C-0.101982 0.714037 -0.101982 1.37557 0.306043 1.78359L2.52246 3.99999L0.306019 6.21641C-0.102006 6.62443 -0.102006 7.28596 0.306018 7.69398C0.714043 8.10201 1.37558 8.102 1.78361 7.69398L4.00005 5.47756L6.21639 7.69389C6.62442 8.10191 7.28596 8.10191 7.69398 7.69389C8.10201 7.28587 8.10201 6.62433 7.69398 6.21631L5.47764 3.99999L7.69396 1.78369C8.10198 1.37567 8.10198 0.714134 7.69396 0.306113C7.28593 -0.101908 6.6244 -0.101908 6.21637 0.306113L4.00005 2.52241L1.78363 0.306016Z" fill="black"/>
</svg>
