<svg width="24" height="24" viewBox="0 0 24 24" fill="none" xmlns="http://www.w3.org/2000/svg">
<path d="M0.75 12C0.75 13.0387 0.819601 13.9999 0.956574 14.8853C1.39821 17.7401 2.53619 19.797 4.31291 21.1539C6.10285 22.5209 8.63582 23.25 12 23.25C15.3642 23.25 17.8972 22.5209 19.6871 21.1539C21.4638 19.797 22.6018 17.7401 23.0434 14.8853C23.1804 13.9999 23.25 13.0387 23.25 12C23.25 10.9613 23.1804 10.0001 23.0434 9.11466C22.6018 6.2599 21.4638 4.20295 19.6871 2.84606C17.8972 1.47907 15.3642 0.75 12 0.75C8.63582 0.75 6.10284 1.47907 4.31291 2.84606C2.53618 4.20295 1.39821 6.2599 0.956574 9.11466C0.819601 10.0001 0.75 10.9613 0.75 12Z" stroke="#969696" stroke-width="1.5" stroke-linecap="round" stroke-linejoin="round"/>
<path d="M15.25 12C15.25 14.9737 14.8105 17.8941 14.1147 20.0476C13.7655 21.1286 13.3649 21.9749 12.9529 22.5348C12.5263 23.1146 12.1951 23.25 12 23.25C11.8049 23.25 11.4737 23.1146 11.0471 22.5348C10.6351 21.9749 10.2345 21.1286 9.88525 20.0476C9.18952 17.8941 8.75 14.9737 8.75 12C8.75 9.02631 9.18952 6.10594 9.88525 3.95239C10.2345 2.87138 10.6351 2.02509 11.0471 1.46518C11.4737 0.885414 11.8049 0.75 12 0.75C12.1951 0.75 12.5263 0.885414 12.9529 1.46518C13.3649 2.02509 13.7655 2.87138 14.1147 3.95239C14.8105 6.10594 15.25 9.02631 15.25 12Z" stroke="#969696" stroke-width="1.5"/>
</svg>
